<svg width="600" height="300" viewBox="0 0 600 300" xmlns="http://www.w3.org/2000/svg"><mask id="satori_om-id"><rect x="0" y="0" width="600" height="300" fill="#fff"/></mask><rect x="0" y="0" width="600" height="300" fill="#181818"/><clipPath id="satori_cp-id-0"><rect x="0" y="0" width="600" height="295"/></clipPath><mask id="satori_om-id-0"><rect x="0" y="0" width="600" height="295" fill="#fff"/></mask><clipPath id="satori_cp-id-0-0" clip-path="url(#satori_cp-id-0)"><rect x="20" y="20" width="560" height="32"/></clipPath><mask id="satori_om-id-0-0"><rect x="20" y="20" width="560" height="32" fill="#fff" mask="url(#satori_om-id-0)"/></mask><mask id="satori_om-id-0-0-0"><rect x="20" y="25" width="22" height="22" fill="#fff" mask="url(#satori_om-id-0-0)"/></mask><clipPath id="satori_cp-id-0-0-0-0" clip-path="url(#satori_cp-id-0-0)"><rect x="20" y="25" width="22" height="22"/></clipPath><mask id="satori_om-id-0-0-0-0"><rect x="20" y="25" width="22" height="22" fill="#fff" mask="url(#satori_om-id-0-0)"/></mask><image x="20" y="25" width="22" height="22" href="data:image/svg+xml;utf8,%3Csvg  xmlns=%22http://www.w3.org/2000/svg%22 width=%22null%22 height=%22null%22 viewBox=%220 0 32 32%22%3E%3Cpath fill=%22%234caf50%22 d=%22M28.967 12H9.442a2 2 0 0 0-1.898 1.368L4 24V10h24a2 2 0 0 0-2-2H15.124a2 2 0 0 1-1.28-.464l-1.288-1.072A2 2 0 0 0 11.276 6H4a2 2 0 0 0-2 2v16a2 2 0 0 0 2 2h22l4.805-11.212A2 2 0 0 0 28.967 12%22%3E%3C/path%3E%3Cpath fill=%22%23c8e6c9%22 d=%22M18.473 30a1 1 0 0 1-.238-.028 1.137 1.137 0 0 1-.828-1.323L20.5 12.905a1.13 1.13 0 0 1 .507-.744 1.06 1.06 0 0 1 .8-.134 1.14 1.14 0 0 1 .828 1.324l-3.101 15.744a1.12 1.12 0 0 1-.504.743 1.06 1.06 0 0 1-.557.162m6.2-2h-.077a1.08 1.08 0 0 1-.762-.412 1.164 1.164 0 0 1 .113-1.548l5.319-4.967-5.296-4.623a1.165 1.165 0 0 1-.162-1.544 1.08 1.08 0 0 1 .754-.437 1.06 1.06 0 0 1 .81.258l6.244 5.455a1.156 1.156 0 0 1 .003 1.723l-6.218 5.808a1.07 1.07 0 0 1-.729.289Zm-9.31 0a1.07 1.07 0 0 1-.728-.292l-6.226-5.811a1.16 1.16 0 0 1-.01-1.692l.02-.018 6.246-5.454a1.03 1.03 0 0 1 .8-.26 1.08 1.08 0 0 1 .76.436 1.165 1.165 0 0 1-.16 1.547l-5.294 4.62 5.32 4.964a1.156 1.156 0 0 1 .112 1.548 1.07 1.07 0 0 1-.762.412Z%22%3E%3C/path%3E%3C/svg%3E" preserveAspectRatio="none" clip-path="url(#satori_cp-id-0-0-0-0)" mask="url(#satori_om-id-0-0-0-0)"/><mask id="satori_om-id-0-0-0-0-0"><rect x="20" y="25" width="0" height="22" fill="#fff" mask="url(#satori_om-id-0-0)"/></mask><mask id="satori_om-id-0-0-0-0-1"><rect x="20" y="25" width="0" height="22" fill="#fff" mask="url(#satori_om-id-0-0)"/></mask><path fill="#fff" d="M55.3 45.8L55.3 45.8Q54.0 45.8 52.8 45.3Q51.5 44.9 50.6 44.1L50.6 44.1L52.0 42.1Q52.9 42.7 53.7 43.0Q54.5 43.4 55.3 43.4L55.3 43.4Q56.3 43.4 56.7 43.0Q57.1 42.7 57.1 42.1L57.1 42.1Q57.1 41.6 56.8 41.3Q56.4 41.0 55.8 40.8Q55.2 40.5 54.6 40.3L54.6 40.3Q53.8 40.0 53.0 39.5Q52.3 39.1 51.8 38.4Q51.3 37.7 51.3 36.7L51.3 36.7Q51.3 35.6 51.8 34.7Q52.4 33.9 53.4 33.4Q54.4 32.9 55.9 32.9L55.9 32.9Q57.2 32.9 58.2 33.4Q59.3 33.8 60.0 34.4L60.0 34.4L58.6 36.4Q57.9 35.9 57.3 35.6Q56.6 35.3 55.9 35.3L55.9 35.3Q55.1 35.3 54.7 35.6Q54.3 36.0 54.3 36.5L54.3 36.5Q54.3 36.9 54.6 37.2Q55.0 37.5 55.5 37.8Q56.1 38.0 56.7 38.2L56.7 38.2Q57.3 38.4 58.0 38.7Q58.6 39.0 59.1 39.4Q59.6 39.9 59.9 40.5Q60.2 41.1 60.2 41.9L60.2 41.9Q60.2 43.0 59.6 43.9Q59.0 44.8 58.0 45.3Q56.9 45.8 55.3 45.8ZM65.9 45.5L62.6 45.5L62.6 33.2L65.3 33.2L65.5 35.4L65.6 35.4Q66.3 34.2 67.2 33.5Q68.1 32.9 69.1 32.9L69.1 32.9Q69.6 32.9 69.9 33.0Q70.2 33.0 70.5 33.2L70.5 33.2L70.0 35.9Q69.6 35.9 69.3 35.8Q69.1 35.8 68.7 35.8L68.7 35.8Q68.0 35.8 67.2 36.3Q66.4 36.9 65.9 38.2L65.9 38.2L65.9 45.5ZM77.1 45.8L77.1 45.8Q75.4 45.8 74.0 45.1Q72.7 44.3 71.9 42.8Q71.1 41.4 71.1 39.4L71.1 39.4Q71.1 37.3 72.0 35.9Q72.8 34.4 74.3 33.7Q75.7 32.9 77.4 32.9L77.4 32.9Q78.5 32.9 79.4 33.3Q80.3 33.7 81.0 34.3L81.0 34.3L79.4 36.3Q79.0 35.9 78.5 35.7Q78.1 35.5 77.6 35.5L77.6 35.5Q76.6 35.5 75.9 36.0Q75.2 36.5 74.8 37.3Q74.4 38.2 74.4 39.4L74.4 39.4Q74.4 40.5 74.8 41.4Q75.2 42.2 75.9 42.7Q76.6 43.2 77.5 43.2L77.5 43.2Q78.1 43.2 78.7 42.9Q79.3 42.6 79.9 42.2L79.9 42.2L81.1 44.3Q80.3 45.1 79.2 45.5Q78.1 45.8 77.1 45.8ZM84.2 49.5L82.0 49.5L87.5 27.8L89.6 27.8L84.2 49.5Z " clip-path="url(#satori_cp-id-0-0)" mask="url(#satori_om-id-0-0)"/><clipPath id="satori_cp-id-0-1" clip-path="url(#satori_cp-id-0)"><rect x="20" y="52" width="560" height="32"/></clipPath><mask id="satori_om-id-0-1"><rect x="20" y="52" width="560" height="32" fill="#fff" mask="url(#satori_om-id-0)"/></mask><mask id="satori_om-id-0-1-0"><rect x="53" y="57" width="22" height="22" fill="#fff" mask="url(#satori_om-id-0-1)"/></mask><clipPath id="satori_cp-id-0-1-0-0" clip-path="url(#satori_cp-id-0-1)"><rect x="53" y="57" width="22" height="22"/></clipPath><mask id="satori_om-id-0-1-0-0"><rect x="53" y="57" width="22" height="22" fill="#fff" mask="url(#satori_om-id-0-1)"/></mask><image x="53" y="57" width="22" height="22" href="data:image/svg+xml;utf8,%3Csvg  xmlns=%22http://www.w3.org/2000/svg%22 width=%22null%22 height=%22null%22 viewBox=%220 0 32 32%22%3E%3Cpath fill=%22%23c0ca33%22 d=%22M28.967 12H9.442a2 2 0 0 0-1.898 1.368L4 24V10h24a2 2 0 0 0-2-2H15.124a2 2 0 0 1-1.28-.464l-1.288-1.072A2 2 0 0 0 11.276 6H4a2 2 0 0 0-2 2v16a2 2 0 0 0 2 2h22l4.805-11.212A2 2 0 0 0 28.967 12%22%3E%3C/path%3E%3Cpath fill=%22%23f0f4c3%22 d=%22M12 20h8v8h-8zm10 0h8v8h-8zM12 10h8v8h-8zm8.343 4L26 8.343 31.657 14 26 19.657z%22%3E%3C/path%3E%3C/svg%3E" preserveAspectRatio="none" clip-path="url(#satori_cp-id-0-1-0-0)" mask="url(#satori_om-id-0-1-0-0)"/><mask id="satori_om-id-0-1-0-0-0"><rect x="53" y="57" width="0" height="22" fill="#fff" mask="url(#satori_om-id-0-1)"/></mask><mask id="satori_om-id-0-1-0-0-1"><rect x="53" y="57" width="0" height="22" fill="#fff" mask="url(#satori_om-id-0-1)"/></mask><path fill="#fff" d="M90.0 77.8L90.0 77.8Q88.3 77.8 86.9 77.1Q85.6 76.3 84.8 74.8Q84.0 73.4 84.0 71.4L84.0 71.4Q84.0 69.3 84.8 67.9Q85.7 66.4 87.1 65.7Q88.6 64.9 90.3 64.9L90.3 64.9Q91.4 64.9 92.3 65.3Q93.2 65.7 93.8 66.3L93.8 66.3L92.3 68.3Q91.9 67.9 91.4 67.7Q90.9 67.5 90.4 67.5L90.4 67.5Q89.5 67.5 88.8 68.0Q88.1 68.5 87.7 69.3Q87.3 70.2 87.3 71.4L87.3 71.4Q87.3 72.5 87.7 73.4Q88.1 74.2 88.8 74.7Q89.4 75.2 90.3 75.2L90.3 75.2Q91.0 75.2 91.6 74.9Q92.2 74.6 92.7 74.2L92.7 74.2L94 76.3Q93.1 77.1 92.1 77.5Q91.0 77.8 90.0 77.8ZM100.7 77.8L100.7 77.8Q99.2 77.8 97.8 77.1Q96.5 76.3 95.6 74.8Q94.8 73.4 94.8 71.4L94.8 71.4Q94.8 69.3 95.6 67.9Q96.5 66.4 97.8 65.7Q99.2 64.9 100.7 64.9L100.7 64.9Q101.9 64.9 102.9 65.3Q104.0 65.8 104.8 66.6Q105.7 67.4 106.1 68.6Q106.6 69.8 106.6 71.4L106.6 71.4Q106.6 73.4 105.8 74.8Q105.0 76.3 103.6 77.1Q102.3 77.8 100.7 77.8ZM100.7 75.2L100.7 75.2Q101.5 75.2 102.1 74.7Q102.7 74.2 103.0 73.4Q103.3 72.5 103.3 71.4L103.3 71.4Q103.3 70.2 103.0 69.3Q102.7 68.5 102.1 68.0Q101.5 67.5 100.7 67.5L100.7 67.5Q99.9 67.5 99.3 68.0Q98.7 68.5 98.4 69.3Q98.1 70.2 98.1 71.4L98.1 71.4Q98.1 72.5 98.4 73.4Q98.7 74.2 99.3 74.7Q99.9 75.2 100.7 75.2ZM112.6 77.5L109.3 77.5L109.3 65.2L112.0 65.2L112.2 66.8L112.3 66.8Q113.1 66.1 114.0 65.5Q114.9 64.9 116.1 64.9L116.1 64.9Q117.4 64.9 118.2 65.5Q119.0 66.0 119.4 67.0L119.4 67.0Q120.3 66.1 121.2 65.5Q122.2 64.9 123.4 64.9L123.4 64.9Q125.3 64.9 126.3 66.2Q127.2 67.5 127.2 69.8L127.2 69.8L127.2 77.5L124.0 77.5L124.0 70.2Q124.0 68.8 123.5 68.2Q123.1 67.7 122.2 67.7L122.2 67.7Q121.7 67.7 121.1 68.0Q120.6 68.3 119.9 69.0L119.9 69.0L119.9 77.5L116.6 77.5L116.6 70.2Q116.6 68.8 116.2 68.2Q115.8 67.7 114.9 67.7L114.9 67.7Q114.4 67.7 113.8 68.0Q113.2 68.3 112.6 69.0L112.6 69.0L112.6 77.5ZM133.8 82.3L130.5 82.3L130.5 65.2L133.2 65.2L133.4 66.5L133.5 66.5Q134.3 65.8 135.2 65.4Q136.1 64.9 137.1 64.9L137.1 64.9Q138.6 64.9 139.7 65.7Q140.8 66.5 141.4 67.9Q142.0 69.2 142.0 71.2L142.0 71.2Q142.0 73.3 141.2 74.8Q140.5 76.3 139.3 77.0Q138.1 77.8 136.7 77.8L136.7 77.8Q135.9 77.8 135.2 77.5Q134.4 77.1 133.7 76.5L133.7 76.5L133.8 78.5L133.8 82.3ZM136.0 75.2L136.0 75.2Q136.7 75.2 137.3 74.7Q137.9 74.3 138.3 73.4Q138.6 72.5 138.6 71.2L138.6 71.2Q138.6 70.0 138.4 69.2Q138.1 68.4 137.6 68.0Q137.1 67.6 136.2 67.6L136.2 67.6Q135.6 67.6 135.0 67.9Q134.4 68.2 133.8 68.8L133.8 68.8L133.8 74.2Q134.4 74.8 134.9 75.0Q135.5 75.2 136.0 75.2ZM149.9 77.8L149.9 77.8Q148.3 77.8 147.0 77.1Q145.6 76.3 144.8 74.8Q143.9 73.4 143.9 71.4L143.9 71.4Q143.9 69.3 144.8 67.9Q145.6 66.4 147.0 65.7Q148.3 64.9 149.9 64.9L149.9 64.9Q151.0 64.9 152.1 65.3Q153.1 65.8 154.0 66.6Q154.8 67.4 155.3 68.6Q155.8 69.8 155.8 71.4L155.8 71.4Q155.8 73.4 154.9 74.8Q154.1 76.3 152.8 77.1Q151.4 77.8 149.9 77.8ZM149.9 75.2L149.9 75.2Q150.7 75.2 151.3 74.7Q151.9 74.2 152.2 73.4Q152.5 72.5 152.5 71.4L152.5 71.4Q152.5 70.2 152.2 69.3Q151.9 68.5 151.3 68.0Q150.7 67.5 149.9 67.5L149.9 67.5Q149.0 67.5 148.4 68.0Q147.9 68.5 147.6 69.3Q147.3 70.2 147.3 71.4L147.3 71.4Q147.3 72.5 147.6 73.4Q147.9 74.2 148.4 74.7Q149.0 75.2 149.9 75.2ZM161.7 77.5L158.5 77.5L158.5 65.2L161.1 65.2L161.4 66.8L161.4 66.8Q162.2 66.0 163.2 65.5Q164.2 64.9 165.4 64.9L165.4 64.9Q167.4 64.9 168.3 66.2Q169.2 67.5 169.2 69.8L169.2 69.8L169.2 77.5L166.0 77.5L166.0 70.2Q166.0 68.8 165.6 68.2Q165.2 67.7 164.3 67.7L164.3 67.7Q163.5 67.7 163.0 68.0Q162.4 68.4 161.7 69.0L161.7 69.0L161.7 77.5ZM178.0 77.8L178.0 77.8Q176.2 77.8 174.8 77.1Q173.5 76.3 172.6 74.8Q171.8 73.4 171.8 71.4L171.8 71.4Q171.8 69.9 172.3 68.7Q172.8 67.5 173.6 66.6Q174.4 65.8 175.4 65.3Q176.5 64.9 177.6 64.9L177.6 64.9Q179.3 64.9 180.4 65.7Q181.5 66.4 182.1 67.7Q182.7 69.1 182.7 70.8L182.7 70.8Q182.7 71.2 182.7 71.6Q182.6 72.0 182.6 72.3L182.6 72.3L175.0 72.3Q175.1 73.3 175.6 74.0Q176.0 74.6 176.7 75.0Q177.5 75.3 178.4 75.3L178.4 75.3Q179.1 75.3 179.8 75.1Q180.5 74.9 181.1 74.5L181.1 74.5L182.2 76.5Q181.3 77.1 180.2 77.5Q179.1 77.8 178.0 77.8ZM174.9 70.1L174.9 70.1L179.9 70.1Q179.9 68.9 179.4 68.1Q178.8 67.4 177.6 67.4L177.6 67.4Q177.0 67.4 176.4 67.7Q175.8 68.0 175.4 68.6Q175.0 69.2 174.9 70.1ZM188.6 77.5L185.4 77.5L185.4 65.2L188.0 65.2L188.2 66.8L188.3 66.8Q189.1 66.0 190.1 65.5Q191.1 64.9 192.3 64.9L192.3 64.9Q194.3 64.9 195.2 66.2Q196.1 67.5 196.1 69.8L196.1 69.8L196.1 77.5L192.9 77.5L192.9 70.2Q192.9 68.8 192.5 68.2Q192.1 67.7 191.2 67.7L191.2 67.7Q190.4 67.7 189.8 68.0Q189.3 68.4 188.6 69.0L188.6 69.0L188.6 77.5ZM204.0 77.8L204.0 77.8Q202.5 77.8 201.6 77.2Q200.7 76.7 200.3 75.6Q199.9 74.6 199.9 73.2L199.9 73.2L199.9 67.8L198.2 67.8L198.2 65.4L200.1 65.2L200.5 61.9L203.1 61.9L203.1 65.2L206.2 65.2L206.2 67.8L203.1 67.8L203.1 73.2Q203.1 74.3 203.6 74.8Q204.0 75.3 204.8 75.3L204.8 75.3Q205.1 75.3 205.5 75.2Q205.8 75.1 206.0 75.0L206.0 75.0L206.6 77.4Q206.1 77.5 205.4 77.7Q204.8 77.8 204.0 77.8ZM211.9 77.8L211.9 77.8Q210.6 77.8 209.4 77.3Q208.1 76.9 207.2 76.1L207.2 76.1L208.7 74.1Q209.5 74.7 210.3 75.0Q211.1 75.4 212.0 75.4L212.0 75.4Q212.9 75.4 213.3 75.0Q213.7 74.7 213.7 74.1L213.7 74.1Q213.7 73.6 213.4 73.3Q213.0 73.0 212.4 72.8Q211.8 72.5 211.2 72.3L211.2 72.3Q210.4 72.0 209.6 71.5Q208.9 71.1 208.4 70.4Q207.9 69.7 207.9 68.7L207.9 68.7Q207.9 67.6 208.4 66.7Q209.0 65.9 210.0 65.4Q211.1 64.9 212.5 64.9L212.5 64.9Q213.8 64.9 214.9 65.4Q215.9 65.8 216.7 66.4L216.7 66.4L215.2 68.4Q214.5 67.9 213.9 67.6Q213.2 67.3 212.6 67.3L212.6 67.3Q211.7 67.3 211.3 67.6Q210.9 68.0 210.9 68.5L210.9 68.5Q210.9 68.9 211.2 69.2Q211.6 69.5 212.1 69.8Q212.7 70.0 213.4 70.2L213.4 70.2Q214.0 70.4 214.6 70.7Q215.2 71.0 215.7 71.4Q216.2 71.9 216.5 72.5Q216.8 73.1 216.8 73.9L216.8 73.9Q216.8 75.0 216.2 75.9Q215.7 76.8 214.6 77.3Q213.5 77.8 211.9 77.8ZM220.0 81.5L217.8 81.5L223.3 59.8L225.4 59.8L220.0 81.5Z " clip-path="url(#satori_cp-id-0-1)" mask="url(#satori_om-id-0-1)"/><clipPath id="satori_cp-id-0-2" clip-path="url(#satori_cp-id-0)"><rect x="20" y="84" width="560" height="32"/></clipPath><mask id="satori_om-id-0-2"><rect x="20" y="84" width="560" height="32" fill="#fff" mask="url(#satori_om-id-0)"/></mask><mask id="satori_om-id-0-2-0"><rect x="86" y="89" width="22" height="22" fill="#fff" mask="url(#satori_om-id-0-2)"/></mask><clipPath id="satori_cp-id-0-2-0-0" clip-path="url(#satori_cp-id-0-2)"><rect x="86" y="89" width="22" height="22"/></clipPath><mask id="satori_om-id-0-2-0-0"><rect x="86" y="89" width="22" height="22" fill="#fff" mask="url(#satori_om-id-0-2)"/></mask><image x="86" y="89" width="22" height="22" href="data:image/svg+xml;utf8,%3Csvg  xmlns=%22http://www.w3.org/2000/svg%22 width=%22null%22 height=%22null%22 viewBox=%220 0 32 32%22%3E%3Cpath fill=%22%230288d1%22 d=%22M16 12c7.444 0 12 2.59 12 4s-4.556 4-12 4-12-2.59-12-4 4.556-4 12-4m0-2c-7.732 0-14 2.686-14 6s6.268 6 14 6 14-2.686 14-6-6.268-6-14-6%22%3E%3C/path%3E%3Cpath fill=%22%230288d1%22 d=%22M16 14a2 2 0 1 0 2 2 2 2 0 0 0-2-2%22%3E%3C/path%3E%3Cpath fill=%22%230288d1%22 d=%22M10.458 5.507c2.017 0 5.937 3.177 9.006 8.493 3.722 6.447 3.757 11.687 2.536 12.392a.9.9 0 0 1-.457.1c-2.017 0-5.938-3.176-9.007-8.492C8.814 11.553 8.779 6.313 10 5.608a.9.9 0 0 1 .458-.1m-.001-2A2.87 2.87 0 0 0 9 3.875C6.13 5.532 6.938 12.304 10.804 19c3.284 5.69 7.72 9.493 10.74 9.493A2.87 2.87 0 0 0 23 28.124c2.87-1.656 2.062-8.428-1.804-15.124-3.284-5.69-7.72-9.493-10.74-9.493Z%22%3E%3C/path%3E%3Cpath fill=%22%230288d1%22 d=%22M21.543 5.507a.9.9 0 0 1 .457.1c1.221.706 1.186 5.946-2.536 12.393-3.07 5.316-6.99 8.493-9.007 8.493a.9.9 0 0 1-.457-.1C8.779 25.686 8.814 20.446 12.536 14c3.07-5.316 6.99-8.493 9.007-8.493m0-2c-3.02 0-7.455 3.804-10.74 9.493C6.939 19.696 6.13 26.468 9 28.124a2.87 2.87 0 0 0 1.457.369c3.02 0 7.455-3.804 10.74-9.493C25.061 12.304 25.87 5.532 23 3.876a2.87 2.87 0 0 0-1.457-.369%22%3E%3C/path%3E%3C/svg%3E" preserveAspectRatio="none" clip-path="url(#satori_cp-id-0-2-0-0)" mask="url(#satori_om-id-0-2-0-0)"/><mask id="satori_om-id-0-2-0-0-0"><rect x="86" y="89" width="0" height="22" fill="#fff" mask="url(#satori_om-id-0-2)"/></mask><mask id="satori_om-id-0-2-0-0-1"><rect x="86" y="89" width="0" height="22" fill="#fff" mask="url(#satori_om-id-0-2)"/></mask><mask id="satori_om-id-0-2-0-0-2"><rect x="86" y="89" width="0" height="22" fill="#fff" mask="url(#satori_om-id-0-2)"/></mask><mask id="satori_om-id-0-2-0-0-3"><rect x="86" y="89" width="0" height="22" fill="#fff" mask="url(#satori_om-id-0-2)"/></mask><path fill="#fff" d="M123.9 109.8L123.9 109.8Q123.1 109.8 122.2 109.4Q121.4 109.0 120.6 108.2L120.6 108.2L120.5 108.2L120.3 109.5L117.7 109.5L117.7 92.0L121.0 92.0L121.0 96.4L120.9 98.4Q121.6 97.7 122.5 97.3Q123.4 96.9 124.3 96.9L124.3 96.9Q125.8 96.9 126.9 97.7Q128.0 98.5 128.6 99.9Q129.2 101.2 129.2 103.1L129.2 103.1Q129.2 105.3 128.4 106.8Q127.7 108.3 126.5 109.0Q125.3 109.8 123.9 109.8ZM123.2 107.2L123.2 107.2Q123.9 107.2 124.5 106.7Q125.1 106.3 125.5 105.4Q125.8 104.5 125.8 103.2L125.8 103.2Q125.8 102.0 125.6 101.2Q125.3 100.4 124.8 100.0Q124.3 99.6 123.4 99.6L123.4 99.6Q122.8 99.6 122.2 99.9Q121.6 100.2 121.0 100.8L121.0 100.8L121.0 106.2Q121.5 106.8 122.1 107.0Q122.7 107.2 123.2 107.2ZM135.6 109.8L135.6 109.8Q133.6 109.8 132.7 108.5Q131.8 107.2 131.8 104.9L131.8 104.9L131.8 97.2L135.0 97.2L135.0 104.5Q135.0 105.9 135.4 106.5Q135.8 107.1 136.7 107.1L136.7 107.1Q137.5 107.1 138.1 106.7Q138.6 106.3 139.2 105.5L139.2 105.5L139.2 97.2L142.5 97.2L142.5 109.5L139.8 109.5L139.6 107.7L139.5 107.7Q138.7 108.7 137.8 109.3Q136.9 109.8 135.6 109.8ZM150.4 109.8L150.4 109.8Q149.0 109.8 148.1 109.2Q147.2 108.7 146.8 107.6Q146.4 106.6 146.4 105.2L146.4 105.2L146.4 99.8L144.6 99.8L144.6 97.4L146.6 97.2L146.9 93.9L149.6 93.9L149.6 97.2L152.7 97.2L152.7 99.8L149.6 99.8L149.6 105.2Q149.6 106.3 150.0 106.8Q150.5 107.3 151.3 107.3L151.3 107.3Q151.6 107.3 151.9 107.2Q152.3 107.1 152.5 107.0L152.5 107.0L153.0 109.4Q152.5 109.5 151.9 109.7Q151.2 109.8 150.4 109.8ZM159.1 109.8L159.1 109.8Q157.6 109.8 156.7 109.2Q155.8 108.7 155.4 107.6Q155.0 106.6 155.0 105.2L155.0 105.2L155.0 99.8L153.3 99.8L153.3 97.4L155.2 97.2L155.6 93.9L158.2 93.9L158.2 97.2L161.3 97.2L161.3 99.8L158.2 99.8L158.2 105.2Q158.2 106.3 158.7 106.8Q159.1 107.3 159.9 107.3L159.9 107.3Q160.2 107.3 160.6 107.2Q160.9 107.1 161.1 107.0L161.1 107.0L161.7 109.4Q161.2 109.5 160.5 109.7Q159.9 109.8 159.1 109.8ZM168.4 109.8L168.4 109.8Q166.9 109.8 165.5 109.1Q164.2 108.3 163.3 106.8Q162.5 105.4 162.5 103.4L162.5 103.4Q162.5 101.3 163.3 99.9Q164.2 98.4 165.5 97.7Q166.9 96.9 168.4 96.9L168.4 96.9Q169.6 96.9 170.6 97.3Q171.7 97.8 172.5 98.6Q173.4 99.4 173.9 100.6Q174.3 101.8 174.3 103.4L174.3 103.4Q174.3 105.4 173.5 106.8Q172.7 108.3 171.3 109.1Q170.0 109.8 168.4 109.8ZM168.4 107.2L168.4 107.2Q169.3 107.2 169.8 106.7Q170.4 106.2 170.7 105.4Q171.0 104.5 171.0 103.4L171.0 103.4Q171.0 102.2 170.7 101.3Q170.4 100.5 169.8 100.0Q169.3 99.5 168.4 99.5L168.4 99.5Q167.6 99.5 167.0 100.0Q166.4 100.5 166.1 101.3Q165.8 102.2 165.8 103.4L165.8 103.4Q165.8 104.5 166.1 105.4Q166.4 106.2 167.0 106.7Q167.6 107.2 168.4 107.2ZM180.3 109.5L177.0 109.5L177.0 97.2L179.7 97.2L179.9 98.8L180.0 98.8Q180.8 98.0 181.8 97.5Q182.7 96.9 184.0 96.9L184.0 96.9Q186.0 96.9 186.9 98.2Q187.8 99.5 187.8 101.8L187.8 101.8L187.8 109.5L184.6 109.5L184.6 102.2Q184.6 100.8 184.2 100.2Q183.8 99.7 182.8 99.7L182.8 99.7Q182.1 99.7 181.5 100.0Q181.0 100.4 180.3 101.0L180.3 101.0L180.3 109.5ZM193 109.8L193 109.8Q192.1 109.8 191.5 109.2Q191.0 108.6 191.0 107.7L191.0 107.7Q191.0 106.8 191.5 106.2Q192.1 105.6 193 105.6L193 105.6Q193.9 105.6 194.4 106.2Q195.0 106.8 195.0 107.7L195.0 107.7Q195.0 108.6 194.4 109.2Q193.9 109.8 193 109.8ZM201.2 109.8L201.2 109.8Q199.8 109.8 198.9 109.2Q198.0 108.7 197.6 107.6Q197.2 106.6 197.2 105.2L197.2 105.2L197.2 99.8L195.5 99.8L195.5 97.4L197.4 97.2L197.8 93.9L200.4 93.9L200.4 97.2L203.5 97.2L203.5 99.8L200.4 99.8L200.4 105.2Q200.4 106.3 200.9 106.8Q201.3 107.3 202.1 107.3L202.1 107.3Q202.4 107.3 202.7 107.2Q203.1 107.1 203.3 107.0L203.3 107.0L203.9 109.4Q203.4 109.5 202.7 109.7Q202.1 109.8 201.2 109.8ZM209.1 109.8L209.1 109.8Q207.9 109.8 206.7 109.3Q205.4 108.9 204.5 108.1L204.5 108.1L205.9 106.1Q206.8 106.7 207.6 107.0Q208.4 107.4 209.2 107.4L209.2 107.4Q210.2 107.4 210.6 107.0Q211.0 106.7 211.0 106.1L211.0 106.1Q211.0 105.6 210.6 105.3Q210.3 105.0 209.7 104.8Q209.1 104.5 208.4 104.3L208.4 104.3Q207.7 104.0 206.9 103.5Q206.2 103.1 205.6 102.4Q205.1 101.7 205.1 100.7L205.1 100.7Q205.1 99.6 205.7 98.7Q206.3 97.9 207.3 97.4Q208.3 96.9 209.7 96.9L209.7 96.9Q211.1 96.9 212.1 97.4Q213.2 97.8 213.9 98.4L213.9 98.4L212.5 100.4Q211.8 99.9 211.2 99.6Q210.5 99.3 209.8 99.3L209.8 99.3Q209.0 99.3 208.6 99.6Q208.2 100.0 208.2 100.5L208.2 100.5Q208.2 100.9 208.5 101.2Q208.8 101.5 209.4 101.8Q210.0 102.0 210.6 102.2L210.6 102.2Q211.2 102.4 211.8 102.7Q212.4 103.0 213.0 103.4Q213.5 103.9 213.8 104.5Q214.1 105.1 214.1 105.9L214.1 105.9Q214.1 107.0 213.5 107.9Q212.9 108.8 211.8 109.3Q210.8 109.8 209.1 109.8ZM218.5 109.5L215.1 109.5L219.0 103.1L215.4 97.2L218.8 97.2L220.1 99.4Q220.3 99.9 220.6 100.4Q220.9 101.0 221.2 101.5L221.2 101.5L221.3 101.5Q221.5 101.0 221.7 100.4Q222.0 99.9 222.2 99.4L222.2 99.4L223.2 97.2L226.5 97.2L222.9 103.5L226.8 109.5L223.3 109.5L222.0 107.3Q221.7 106.7 221.4 106.2Q221.1 105.6 220.8 105.1L220.8 105.1L220.7 105.1Q220.4 105.6 220.1 106.2Q219.9 106.7 219.6 107.3L219.6 107.3L218.5 109.5Z " clip-path="url(#satori_cp-id-0-2)" mask="url(#satori_om-id-0-2)"/><clipPath id="satori_cp-id-0-3" clip-path="url(#satori_cp-id-0)"><rect x="20" y="116" width="560" height="31"/></clipPath><mask id="satori_om-id-0-3"><rect x="20" y="116" width="560" height="31" fill="#fff" mask="url(#satori_om-id-0)"/></mask><mask id="satori_om-id-0-3-0"><rect x="86" y="121" width="22" height="22" fill="#fff" mask="url(#satori_om-id-0-3)"/></mask><clipPath id="satori_cp-id-0-3-0-0" clip-path="url(#satori_cp-id-0-3)"><rect x="86" y="121" width="22" height="22"/></clipPath><mask id="satori_om-id-0-3-0-0"><rect x="86" y="121" width="22" height="22" fill="#fff" mask="url(#satori_om-id-0-3)"/></mask><image x="86" y="121" width="22" height="22" href="data:image/svg+xml;utf8,%3Csvg  xmlns=%22http://www.w3.org/2000/svg%22 width=%22null%22 height=%22null%22 viewBox=%220 0 32 32%22%3E%3Cpath fill=%22%230288d1%22 d=%22M16 12c7.444 0 12 2.59 12 4s-4.556 4-12 4-12-2.59-12-4 4.556-4 12-4m0-2c-7.732 0-14 2.686-14 6s6.268 6 14 6 14-2.686 14-6-6.268-6-14-6%22%3E%3C/path%3E%3Cpath fill=%22%230288d1%22 d=%22M16 14a2 2 0 1 0 2 2 2 2 0 0 0-2-2%22%3E%3C/path%3E%3Cpath fill=%22%230288d1%22 d=%22M10.458 5.507c2.017 0 5.937 3.177 9.006 8.493 3.722 6.447 3.757 11.687 2.536 12.392a.9.9 0 0 1-.457.1c-2.017 0-5.938-3.176-9.007-8.492C8.814 11.553 8.779 6.313 10 5.608a.9.9 0 0 1 .458-.1m-.001-2A2.87 2.87 0 0 0 9 3.875C6.13 5.532 6.938 12.304 10.804 19c3.284 5.69 7.72 9.493 10.74 9.493A2.87 2.87 0 0 0 23 28.124c2.87-1.656 2.062-8.428-1.804-15.124-3.284-5.69-7.72-9.493-10.74-9.493Z%22%3E%3C/path%3E%3Cpath fill=%22%230288d1%22 d=%22M21.543 5.507a.9.9 0 0 1 .457.1c1.221.706 1.186 5.946-2.536 12.393-3.07 5.316-6.99 8.493-9.007 8.493a.9.9 0 0 1-.457-.1C8.779 25.686 8.814 20.446 12.536 14c3.07-5.316 6.99-8.493 9.007-8.493m0-2c-3.02 0-7.455 3.804-10.74 9.493C6.939 19.696 6.13 26.468 9 28.124a2.87 2.87 0 0 0 1.457.369c3.02 0 7.455-3.804 10.74-9.493C25.061 12.304 25.87 5.532 23 3.876a2.87 2.87 0 0 0-1.457-.369%22%3E%3C/path%3E%3C/svg%3E" preserveAspectRatio="none" clip-path="url(#satori_cp-id-0-3-0-0)" mask="url(#satori_om-id-0-3-0-0)"/><mask id="satori_om-id-0-3-0-0-0"><rect x="86" y="121" width="0" height="22" fill="#fff" mask="url(#satori_om-id-0-3)"/></mask><mask id="satori_om-id-0-3-0-0-1"><rect x="86" y="121" width="0" height="22" fill="#fff" mask="url(#satori_om-id-0-3)"/></mask><mask id="satori_om-id-0-3-0-0-2"><rect x="86" y="121" width="0" height="22" fill="#fff" mask="url(#satori_om-id-0-3)"/></mask><mask id="satori_om-id-0-3-0-0-3"><rect x="86" y="121" width="0" height="22" fill="#fff" mask="url(#satori_om-id-0-3)"/></mask><path fill="#fff" d="M121.0 141.5L117.7 141.5L117.7 129.2L121.0 129.2L121.0 141.5ZM119.4 127.2L119.4 127.2Q118.5 127.2 118.0 126.7Q117.5 126.3 117.5 125.4L117.5 125.4Q117.5 124.6 118.0 124.2Q118.5 123.7 119.4 123.7L119.4 123.7Q120.2 123.7 120.7 124.2Q121.2 124.6 121.2 125.4L121.2 125.4Q121.2 126.3 120.7 126.7Q120.2 127.2 119.4 127.2ZM127.7 141.5L124.4 141.5L124.4 129.2L127.1 129.2L127.3 130.8L127.4 130.8Q128.2 130.0 129.2 129.5Q130.1 128.9 131.4 128.9L131.4 128.9Q133.4 128.9 134.3 130.2Q135.2 131.5 135.2 133.8L135.2 133.8L135.2 141.5L131.9 141.5L131.9 134.2Q131.9 132.8 131.5 132.2Q131.1 131.7 130.2 131.7L130.2 131.7Q129.5 131.7 128.9 132.0Q128.3 132.4 127.7 133.1L127.7 133.1L127.7 141.5ZM141.8 146.3L138.5 146.3L138.5 129.2L141.2 129.2L141.4 130.5L141.5 130.5Q142.2 129.8 143.2 129.4Q144.1 128.9 145.1 128.9L145.1 128.9Q146.6 128.9 147.7 129.7Q148.8 130.5 149.4 131.9Q149.9 133.2 149.9 135.2L149.9 135.2Q149.9 137.3 149.2 138.8Q148.4 140.3 147.3 141.0Q146.1 141.8 144.7 141.8L144.7 141.8Q143.9 141.8 143.1 141.5Q142.4 141.1 141.7 140.5L141.7 140.5L141.8 142.5L141.8 146.3ZM144.0 139.2L144.0 139.2Q144.7 139.2 145.3 138.7Q145.9 138.3 146.3 137.4Q146.6 136.5 146.6 135.2L146.6 135.2Q146.6 134.0 146.4 133.2Q146.1 132.4 145.6 132.0Q145.0 131.6 144.2 131.6L144.2 131.6Q143.6 131.6 143.0 131.9Q142.4 132.2 141.8 132.8L141.8 132.8L141.8 138.2Q142.4 138.8 142.9 139.0Q143.5 139.2 144.0 139.2ZM156.4 141.8L156.4 141.8Q154.4 141.8 153.5 140.5Q152.6 139.2 152.6 136.9L152.6 136.9L152.6 129.2L155.8 129.2L155.8 136.5Q155.8 137.9 156.2 138.5Q156.6 139.1 157.5 139.1L157.5 139.1Q158.3 139.1 158.8 138.7Q159.4 138.3 160.0 137.5L160.0 137.5L160.0 129.2L163.3 129.2L163.3 141.5L160.6 141.5L160.4 139.7L160.3 139.7Q159.5 140.7 158.6 141.3Q157.6 141.8 156.4 141.8ZM171.2 141.8L171.2 141.8Q169.8 141.8 168.9 141.2Q168.0 140.7 167.6 139.6Q167.2 138.6 167.2 137.2L167.2 137.2L167.2 131.8L165.4 131.8L165.4 129.4L167.3 129.2L167.7 125.9L170.4 125.9L170.4 129.2L173.4 129.2L173.4 131.8L170.4 131.8L170.4 137.2Q170.4 138.3 170.8 138.8Q171.3 139.3 172.1 139.3L172.1 139.3Q172.4 139.3 172.7 139.2Q173.0 139.1 173.3 139.0L173.3 139.0L173.8 141.4Q173.3 141.5 172.7 141.7Q172.0 141.8 171.2 141.8ZM177.5 141.8L177.5 141.8Q176.7 141.8 176.1 141.2Q175.5 140.6 175.5 139.7L175.5 139.7Q175.5 138.8 176.1 138.2Q176.7 137.6 177.5 137.6L177.5 137.6Q178.4 137.6 179.0 138.2Q179.5 138.8 179.5 139.7L179.5 139.7Q179.5 140.6 179.0 141.2Q178.4 141.8 177.5 141.8ZM185.8 141.8L185.8 141.8Q184.3 141.8 183.4 141.2Q182.5 140.7 182.1 139.6Q181.7 138.6 181.7 137.2L181.7 137.2L181.7 131.8L180.0 131.8L180.0 129.4L181.9 129.2L182.3 125.9L184.9 125.9L184.9 129.2L188.0 129.2L188.0 131.8L184.9 131.8L184.9 137.2Q184.9 138.3 185.4 138.8Q185.8 139.3 186.6 139.3L186.6 139.3Q186.9 139.3 187.3 139.2Q187.6 139.1 187.9 139.0L187.9 139.0L188.4 141.4Q187.9 141.5 187.2 141.7Q186.6 141.8 185.8 141.8ZM193.7 141.8L193.7 141.8Q192.5 141.8 191.2 141.3Q189.9 140.9 189.0 140.1L189.0 140.1L190.5 138.1Q191.3 138.7 192.1 139.0Q192.9 139.4 193.8 139.4L193.8 139.4Q194.7 139.4 195.1 139.0Q195.6 138.7 195.6 138.1L195.6 138.1Q195.6 137.6 195.2 137.3Q194.8 137.0 194.2 136.8Q193.6 136.5 193.0 136.3L193.0 136.3Q192.2 136.0 191.4 135.5Q190.7 135.1 190.2 134.4Q189.7 133.7 189.7 132.7L189.7 132.7Q189.7 131.6 190.3 130.7Q190.8 129.9 191.8 129.4Q192.9 128.9 194.3 128.9L194.3 128.9Q195.6 128.9 196.7 129.4Q197.7 129.8 198.5 130.4L198.5 130.4L197.0 132.4Q196.3 131.9 195.7 131.6Q195.0 131.3 194.4 131.3L194.4 131.3Q193.5 131.3 193.1 131.6Q192.7 132.0 192.7 132.5L192.7 132.5Q192.7 132.9 193.0 133.2Q193.4 133.5 193.9 133.8Q194.5 134.0 195.2 134.2L195.2 134.2Q195.8 134.4 196.4 134.7Q197.0 135.0 197.5 135.4Q198.0 135.9 198.3 136.5Q198.6 137.1 198.6 137.9L198.6 137.9Q198.6 139.0 198.0 139.9Q197.5 140.8 196.4 141.3Q195.3 141.8 193.7 141.8ZM203.0 141.5L199.7 141.5L203.5 135.1L199.9 129.2L203.4 129.2L204.6 131.4Q204.9 131.9 205.2 132.4Q205.4 133.0 205.7 133.5L205.7 133.5L205.8 133.5Q206.0 133.0 206.3 132.4Q206.5 131.9 206.7 131.4L206.7 131.4L207.7 129.2L211.1 129.2L207.5 135.5L211.3 141.5L207.8 141.5L206.5 139.3Q206.2 138.7 205.9 138.2Q205.6 137.6 205.3 137.1L205.3 137.1L205.2 137.1Q204.9 137.6 204.7 138.2Q204.4 138.7 204.2 139.3L204.2 139.3L203.0 141.5Z " clip-path="url(#satori_cp-id-0-3)" mask="url(#satori_om-id-0-3)"/><clipPath id="satori_cp-id-0-4" clip-path="url(#satori_cp-id-0)"><rect x="20" y="147" width="560" height="32"/></clipPath><mask id="satori_om-id-0-4"><rect x="20" y="147" width="560" height="32" fill="#fff" mask="url(#satori_om-id-0)"/></mask><mask id="satori_om-id-0-4-0"><rect x="53" y="152" width="22" height="22" fill="#fff" mask="url(#satori_om-id-0-4)"/></mask><clipPath id="satori_cp-id-0-4-0-0" clip-path="url(#satori_cp-id-0-4)"><rect x="53" y="152" width="22" height="22"/></clipPath><mask id="satori_om-id-0-4-0-0"><rect x="53" y="152" width="22" height="22" fill="#fff" mask="url(#satori_om-id-0-4)"/></mask><image x="53" y="152" width="22" height="22" href="data:image/svg+xml;utf8,%3Csvg  xmlns=%22http://www.w3.org/2000/svg%22 width=%22null%22 height=%22null%22 viewBox=%220 0 16 16%22%3E%3Cpath fill=%22%230288d1%22 d=%22M2 2h12v12H2zm7.14 9.907c.333.653 1.007 1.153 2.06 1.153 1.067 0 1.867-.553 1.867-1.573 0-.94-.54-1.36-1.5-1.774l-.28-.12c-.487-.206-.694-.346-.694-.68 0-.273.207-.486.54-.486.32 0 .534.14.727.486l.873-.58c-.366-.64-.886-.886-1.6-.886-1.006 0-1.653.64-1.653 1.486 0 .92.54 1.354 1.353 1.7l.28.12c.52.227.827.367.827.754 0 .32-.3.553-.767.553-.553 0-.873-.287-1.113-.687zM8.667 7.5H5.333v1h1v4.833H7.5V8.5h1.167z%22%3E%3C/path%3E%3C/svg%3E" preserveAspectRatio="none" clip-path="url(#satori_cp-id-0-4-0-0)" mask="url(#satori_om-id-0-4-0-0)"/><mask id="satori_om-id-0-4-0-0-0"><rect x="53" y="152" width="0" height="22" fill="#fff" mask="url(#satori_om-id-0-4)"/></mask><path fill="#fff" d="M87.8 172.8L87.8 172.8Q86.7 172.8 85.8 172.4Q85.0 171.9 84.6 171.0Q84.1 170.2 84.1 169.2L84.1 169.2Q84.1 167.2 85.8 166.1Q87.5 165.0 91.2 164.6L91.2 164.6Q91.2 164.0 91.0 163.5Q90.8 163.1 90.3 162.8Q89.9 162.5 89.1 162.5L89.1 162.5Q88.3 162.5 87.4 162.8Q86.6 163.1 85.7 163.7L85.7 163.7L84.6 161.5Q85.3 161.1 86.1 160.7Q86.9 160.4 87.8 160.1Q88.7 159.9 89.7 159.9L89.7 159.9Q91.3 159.9 92.3 160.5Q93.4 161.1 93.9 162.3Q94.4 163.5 94.4 165.3L94.4 165.3L94.4 172.5L91.8 172.5L91.6 171.2L91.5 171.2Q90.7 171.9 89.8 172.4Q88.8 172.8 87.8 172.8ZM88.8 170.3L88.8 170.3Q89.5 170.3 90.1 170.0Q90.6 169.7 91.2 169.1L91.2 169.1L91.2 166.6Q89.7 166.8 88.8 167.1Q88.0 167.5 87.6 167.9Q87.2 168.4 87.2 168.9L87.2 168.9Q87.2 169.6 87.7 170.0Q88.1 170.3 88.8 170.3ZM101.0 177.3L97.7 177.3L97.7 160.2L100.4 160.2L100.6 161.5L100.7 161.5Q101.5 160.8 102.4 160.4Q103.3 159.9 104.3 159.9L104.3 159.9Q105.8 159.9 106.9 160.7Q108.0 161.5 108.6 162.9Q109.2 164.2 109.2 166.2L109.2 166.2Q109.2 168.3 108.4 169.8Q107.7 171.3 106.5 172.0Q105.3 172.8 103.9 172.8L103.9 172.8Q103.1 172.8 102.3 172.5Q101.6 172.1 100.9 171.5L100.9 171.5L101.0 173.5L101.0 177.3ZM103.2 170.2L103.2 170.2Q103.9 170.2 104.5 169.7Q105.1 169.3 105.5 168.4Q105.8 167.5 105.8 166.2L105.8 166.2Q105.8 165.0 105.6 164.2Q105.3 163.4 104.8 163.0Q104.3 162.6 103.4 162.6L103.4 162.6Q102.8 162.6 102.2 162.9Q101.6 163.2 101.0 163.8L101.0 163.8L101.0 169.2Q101.6 169.8 102.1 170.0Q102.7 170.2 103.2 170.2ZM115.1 177.3L111.9 177.3L111.9 160.2L114.5 160.2L114.8 161.5L114.9 161.5Q115.6 160.8 116.6 160.4Q117.5 159.9 118.5 159.9L118.5 159.9Q120.0 159.9 121.1 160.7Q122.2 161.5 122.7 162.9Q123.3 164.2 123.3 166.2L123.3 166.2Q123.3 168.3 122.6 169.8Q121.8 171.3 120.6 172.0Q119.4 172.8 118.1 172.8L118.1 172.8Q117.3 172.8 116.5 172.5Q115.7 172.1 115.0 171.5L115.0 171.5L115.1 173.5L115.1 177.3ZM117.4 170.2L117.4 170.2Q118.1 170.2 118.7 169.7Q119.3 169.3 119.7 168.4Q120.0 167.5 120.0 166.2L120.0 166.2Q120.0 165.0 119.7 164.2Q119.5 163.4 118.9 163.0Q118.4 162.6 117.6 162.6L117.6 162.6Q116.9 162.6 116.4 162.9Q115.8 163.2 115.1 163.8L115.1 163.8L115.1 169.2Q115.7 169.8 116.3 170.0Q116.9 170.2 117.4 170.2ZM127.5 172.8L127.5 172.8Q126.7 172.8 126.1 172.2Q125.5 171.6 125.5 170.7L125.5 170.7Q125.5 169.8 126.1 169.2Q126.7 168.6 127.5 168.6L127.5 168.6Q128.4 168.6 129.0 169.2Q129.6 169.8 129.6 170.7L129.6 170.7Q129.6 171.6 129.0 172.2Q128.4 172.8 127.5 172.8ZM135.8 172.8L135.8 172.8Q134.3 172.8 133.4 172.2Q132.5 171.7 132.1 170.6Q131.8 169.6 131.8 168.2L131.8 168.2L131.8 162.8L130.0 162.8L130.0 160.4L131.9 160.2L132.3 156.9L135.0 156.9L135.0 160.2L138.0 160.2L138.0 162.8L135.0 162.8L135.0 168.2Q135.0 169.3 135.4 169.8Q135.8 170.3 136.7 170.3L136.7 170.3Q137.0 170.3 137.3 170.2Q137.6 170.1 137.9 170.0L137.9 170.0L138.4 172.4Q137.9 172.5 137.3 172.7Q136.6 172.8 135.8 172.8ZM143.7 172.8L143.7 172.8Q142.5 172.8 141.2 172.3Q139.9 171.9 139.0 171.1L139.0 171.1L140.5 169.1Q141.3 169.7 142.1 170.0Q142.9 170.4 143.8 170.4L143.8 170.4Q144.7 170.4 145.1 170.0Q145.6 169.7 145.6 169.1L145.6 169.1Q145.6 168.6 145.2 168.3Q144.8 168.0 144.2 167.8Q143.6 167.5 143.0 167.3L143.0 167.3Q142.2 167.0 141.5 166.5Q140.7 166.1 140.2 165.4Q139.7 164.7 139.7 163.7L139.7 163.7Q139.7 162.6 140.3 161.7Q140.8 160.9 141.9 160.4Q142.9 159.9 144.3 159.9L144.3 159.9Q145.6 159.9 146.7 160.4Q147.7 160.8 148.5 161.4L148.5 161.4L147.0 163.4Q146.4 162.9 145.7 162.6Q145.1 162.3 144.4 162.3L144.4 162.3Q143.5 162.3 143.1 162.6Q142.7 163.0 142.7 163.5L142.7 163.5Q142.7 163.9 143.1 164.2Q143.4 164.5 144.0 164.8Q144.5 165.0 145.2 165.2L145.2 165.2Q145.8 165.4 146.4 165.7Q147.0 166.0 147.5 166.4Q148.0 166.9 148.3 167.5Q148.6 168.1 148.6 168.9L148.6 168.9Q148.6 170.0 148.0 170.9Q147.5 171.8 146.4 172.3Q145.3 172.8 143.7 172.8Z " clip-path="url(#satori_cp-id-0-4)" mask="url(#satori_om-id-0-4)"/><clipPath id="satori_cp-id-0-5" clip-path="url(#satori_cp-id-0)"><rect x="20" y="179" width="560" height="32"/></clipPath><mask id="satori_om-id-0-5"><rect x="20" y="179" width="560" height="32" fill="#fff" mask="url(#satori_om-id-0)"/></mask><mask id="satori_om-id-0-5-0"><rect x="53" y="184" width="22" height="22" fill="#fff" mask="url(#satori_om-id-0-5)"/></mask><clipPath id="satori_cp-id-0-5-0-0" clip-path="url(#satori_cp-id-0-5)"><rect x="53" y="184" width="22" height="22"/></clipPath><mask id="satori_om-id-0-5-0-0"><rect x="53" y="184" width="22" height="22" fill="#fff" mask="url(#satori_om-id-0-5)"/></mask><image x="53" y="184" width="22" height="22" href="data:image/svg+xml;utf8,%3Csvg  xmlns=%22http://www.w3.org/2000/svg%22 width=%22null%22 height=%22null%22 viewBox=%220 0 16 16%22%3E%3Cpath fill=%22%230288d1%22 d=%22M2 2h12v12H2zm7.14 9.907c.333.653 1.007 1.153 2.06 1.153 1.067 0 1.867-.553 1.867-1.573 0-.94-.54-1.36-1.5-1.774l-.28-.12c-.487-.206-.694-.346-.694-.68 0-.273.207-.486.54-.486.32 0 .534.14.727.486l.873-.58c-.366-.64-.886-.886-1.6-.886-1.006 0-1.653.64-1.653 1.486 0 .92.54 1.354 1.353 1.7l.28.12c.52.227.827.367.827.754 0 .32-.3.553-.767.553-.553 0-.873-.287-1.113-.687zM8.667 7.5H5.333v1h1v4.833H7.5V8.5h1.167z%22%3E%3C/path%3E%3C/svg%3E" preserveAspectRatio="none" clip-path="url(#satori_cp-id-0-5-0-0)" mask="url(#satori_om-id-0-5-0-0)"/><mask id="satori_om-id-0-5-0-0-0"><rect x="53" y="184" width="0" height="22" fill="#fff" mask="url(#satori_om-id-0-5)"/></mask><path fill="#fff" d="M88.0 204.5L84.7 204.5L84.7 192.2L88.0 192.2L88.0 204.5ZM86.4 190.2L86.4 190.2Q85.5 190.2 85.0 189.7Q84.5 189.3 84.5 188.4L84.5 188.4Q84.5 187.6 85.0 187.2Q85.5 186.7 86.4 186.7L86.4 186.7Q87.2 186.7 87.7 187.2Q88.2 187.6 88.2 188.4L88.2 188.4Q88.2 189.3 87.7 189.7Q87.2 190.2 86.4 190.2ZM94.7 204.5L91.4 204.5L91.4 192.2L94.1 192.2L94.3 193.8L94.4 193.8Q95.2 193.0 96.2 192.5Q97.1 191.9 98.4 191.9L98.4 191.9Q100.4 191.9 101.3 193.2Q102.2 194.5 102.2 196.8L102.2 196.8L102.2 204.5L99.0 204.5L99.0 197.2Q99.0 195.8 98.5 195.2Q98.1 194.7 97.2 194.7L97.2 194.7Q96.5 194.7 95.9 195.0Q95.3 195.4 94.7 196.1L94.7 196.1L94.7 204.5ZM109.9 204.8L109.9 204.8Q108.3 204.8 107.2 204.1Q106.1 203.3 105.4 201.8Q104.8 200.4 104.8 198.4L104.8 198.4Q104.8 196.4 105.6 194.9Q106.3 193.5 107.5 192.7Q108.7 191.9 110.0 191.9L110.0 191.9Q111.0 191.9 111.7 192.3Q112.5 192.6 113.1 193.2L113.1 193.2L113.0 191.3L113.0 187.0L116.2 187.0L116.2 204.5L113.6 204.5L113.4 203.2L113.3 203.2Q112.6 203.9 111.7 204.4Q110.8 204.8 109.9 204.8ZM110.7 202.2L110.7 202.2Q111.4 202.2 111.9 201.9Q112.5 201.6 113.0 200.9L113.0 200.9L113.0 195.5Q112.5 195.0 111.9 194.8Q111.3 194.6 110.7 194.6L110.7 194.6Q110.0 194.6 109.4 195.0Q108.9 195.4 108.5 196.2Q108.1 197.1 108.1 198.3L108.1 198.3Q108.1 199.6 108.4 200.5Q108.7 201.3 109.3 201.7Q109.9 202.2 110.7 202.2ZM125.1 204.8L125.1 204.8Q123.3 204.8 122.0 204.1Q120.6 203.3 119.8 201.8Q118.9 200.4 118.9 198.4L118.9 198.4Q118.9 196.9 119.4 195.7Q119.9 194.5 120.7 193.6Q121.5 192.8 122.5 192.3Q123.6 191.9 124.7 191.9L124.7 191.9Q126.4 191.9 127.5 192.7Q128.7 193.4 129.2 194.7Q129.8 196.1 129.8 197.8L129.8 197.8Q129.8 198.2 129.8 198.6Q129.7 199.0 129.7 199.3L129.7 199.3L122.1 199.3Q122.2 200.3 122.7 201.0Q123.1 201.6 123.9 202.0Q124.6 202.3 125.5 202.3L125.5 202.3Q126.3 202.3 126.9 202.1Q127.6 201.9 128.3 201.5L128.3 201.5L129.4 203.5Q128.5 204.1 127.3 204.5Q126.2 204.8 125.1 204.8ZM122.0 197.1L122.0 197.1L127.0 197.1Q127.0 195.9 126.5 195.1Q125.9 194.4 124.7 194.4L124.7 194.4Q124.1 194.4 123.5 194.7Q122.9 195.0 122.5 195.6Q122.1 196.2 122.0 197.1ZM134.0 204.5L130.6 204.5L134.5 198.1L130.9 192.2L134.3 192.2L135.6 194.4Q135.8 194.9 136.1 195.4Q136.4 196.0 136.7 196.5L136.7 196.5L136.8 196.5Q137.0 196.0 137.2 195.4Q137.5 194.9 137.7 194.4L137.7 194.4L138.7 192.2L142.0 192.2L138.4 198.5L142.3 204.5L138.8 204.5L137.5 202.3Q137.2 201.7 136.9 201.2Q136.6 200.6 136.3 200.1L136.3 200.1L136.2 200.1Q135.9 200.6 135.6 201.2Q135.4 201.7 135.1 202.3L135.1 202.3L134.0 204.5ZM145.8 204.8L145.8 204.8Q144.9 204.8 144.3 204.2Q143.7 203.6 143.7 202.7L143.7 202.7Q143.7 201.8 144.3 201.2Q144.9 200.6 145.8 200.6L145.8 200.6Q146.6 200.6 147.2 201.2Q147.8 201.8 147.8 202.7L147.8 202.7Q147.8 203.6 147.2 204.2Q146.6 204.8 145.8 204.8ZM154.0 204.8L154.0 204.8Q152.6 204.8 151.7 204.2Q150.8 203.7 150.4 202.6Q150.0 201.6 150.0 200.2L150.0 200.2L150.0 194.8L148.2 194.8L148.2 192.4L150.1 192.2L150.5 188.9L153.2 188.9L153.2 192.2L156.2 192.2L156.2 194.8L153.2 194.8L153.2 200.2Q153.2 201.3 153.6 201.8Q154.1 202.3 154.9 202.3L154.9 202.3Q155.2 202.3 155.5 202.2Q155.8 202.1 156.1 202.0L156.1 202.0L156.6 204.4Q156.1 204.5 155.5 204.7Q154.8 204.8 154.0 204.8ZM161.9 204.8L161.9 204.8Q160.7 204.8 159.4 204.3Q158.2 203.9 157.2 203.1L157.2 203.1L158.7 201.1Q159.5 201.7 160.3 202.0Q161.1 202.4 162.0 202.4L162.0 202.4Q162.9 202.4 163.4 202.0Q163.8 201.7 163.8 201.1L163.8 201.1Q163.8 200.6 163.4 200.3Q163.0 200.0 162.4 199.8Q161.8 199.5 161.2 199.3L161.2 199.3Q160.4 199.0 159.7 198.5Q158.9 198.1 158.4 197.4Q157.9 196.7 157.9 195.7L157.9 195.7Q157.9 194.6 158.5 193.7Q159.1 192.9 160.1 192.4Q161.1 191.9 162.5 191.9L162.5 191.9Q163.9 191.9 164.9 192.4Q165.9 192.8 166.7 193.4L166.7 193.4L165.2 195.4Q164.6 194.9 163.9 194.6Q163.3 194.3 162.6 194.3L162.6 194.3Q161.7 194.3 161.3 194.6Q160.9 195.0 160.9 195.5L160.9 195.5Q160.9 195.9 161.3 196.2Q161.6 196.5 162.2 196.8Q162.8 197.0 163.4 197.2L163.4 197.2Q164.0 197.4 164.6 197.7Q165.2 198.0 165.7 198.4Q166.2 198.9 166.5 199.5Q166.8 200.1 166.8 200.9L166.8 200.9Q166.8 202.0 166.3 202.9Q165.7 203.8 164.6 204.3Q163.5 204.8 161.9 204.8Z " clip-path="url(#satori_cp-id-0-5)" mask="url(#satori_om-id-0-5)"/><clipPath id="satori_cp-id-0-6" clip-path="url(#satori_cp-id-0)"><rect x="20" y="211" width="560" height="32"/></clipPath><mask id="satori_om-id-0-6"><rect x="20" y="211" width="560" height="32" fill="#fff" mask="url(#satori_om-id-0)"/></mask><mask id="satori_om-id-0-6-0"><rect x="20" y="216" width="22" height="22" fill="#fff" mask="url(#satori_om-id-0-6)"/></mask><clipPath id="satori_cp-id-0-6-0-0" clip-path="url(#satori_cp-id-0-6)"><rect x="20" y="216" width="22" height="22"/></clipPath><mask id="satori_om-id-0-6-0-0"><rect x="20" y="216" width="22" height="22" fill="#fff" mask="url(#satori_om-id-0-6)"/></mask><image x="20" y="216" width="22" height="22" href="data:image/svg+xml;utf8,%3Csvg  xmlns=%22http://www.w3.org/2000/svg%22 width=%22null%22 height=%22null%22 viewBox=%220 0 32 32%22%3E%3Cpath fill=%22%238bc34a%22 d=%22M16 20.003v2h4a2 2 0 0 0 2-2v-2a2 2 0 0 0-2-2h-2v-2h4v-2h-4a2 2 0 0 0-2 2v2a2 2 0 0 0 2 2h2v2Z%22%3E%3C/path%3E%3Cpath fill=%22%238bc34a%22 d=%22m16 3.003-12 7v14l4 2h6v-13.5a.5.5 0 0 0-.5-.5h-1a.5.5 0 0 0-.5.5v11.5H8l-2-1.034V11.15l10-5.833 10 5.833v11.703l-10 5.833-1.745-1.022L13 29.253l3 1.75 12-7v-14Z%22%3E%3C/path%3E%3C/svg%3E" preserveAspectRatio="none" clip-path="url(#satori_cp-id-0-6-0-0)" mask="url(#satori_om-id-0-6-0-0)"/><mask id="satori_om-id-0-6-0-0-0"><rect x="20" y="216" width="0" height="22" fill="#fff" mask="url(#satori_om-id-0-6)"/></mask><mask id="satori_om-id-0-6-0-0-1"><rect x="20" y="216" width="0" height="22" fill="#fff" mask="url(#satori_om-id-0-6)"/></mask><path fill="#fff" d="M55.0 241.3L51.7 241.3L51.7 224.2L54.4 224.2L54.6 225.5L54.7 225.5Q55.5 224.8 56.4 224.4Q57.3 223.9 58.3 223.9L58.3 223.9Q59.8 223.9 60.9 224.7Q62.0 225.5 62.6 226.9Q63.2 228.2 63.2 230.2L63.2 230.2Q63.2 232.3 62.4 233.8Q61.7 235.3 60.5 236.0Q59.3 236.8 57.9 236.8L57.9 236.8Q57.1 236.8 56.3 236.5Q55.6 236.1 54.9 235.5L54.9 235.5L55.0 237.5L55.0 241.3ZM57.2 234.2L57.2 234.2Q57.9 234.2 58.5 233.7Q59.1 233.3 59.5 232.4Q59.8 231.5 59.8 230.2L59.8 230.2Q59.8 229.0 59.6 228.2Q59.3 227.4 58.8 227.0Q58.3 226.6 57.4 226.6L57.4 226.6Q56.8 226.6 56.2 226.9Q55.6 227.2 55.0 227.8L55.0 227.8L55.0 233.2Q55.6 233.8 56.1 234.0Q56.7 234.2 57.2 234.2ZM68.5 236.8L68.5 236.8Q67.4 236.8 66.6 236.4Q65.8 235.9 65.3 235.0Q64.9 234.2 64.9 233.2L64.9 233.2Q64.9 231.2 66.5 230.1Q68.2 229.0 71.9 228.6L71.9 228.6Q71.9 228.0 71.7 227.5Q71.5 227.1 71.1 226.8Q70.6 226.5 69.8 226.5L69.8 226.5Q69.0 226.5 68.2 226.8Q67.3 227.1 66.5 227.7L66.5 227.7L65.3 225.5Q66.0 225.1 66.9 224.7Q67.7 224.4 68.6 224.1Q69.5 223.9 70.4 223.9L70.4 223.9Q72.0 223.9 73.1 224.5Q74.1 225.1 74.6 226.3Q75.2 227.5 75.2 229.3L75.2 229.3L75.2 236.5L72.5 236.5L72.3 235.2L72.2 235.2Q71.4 235.9 70.5 236.4Q69.6 236.8 68.5 236.8ZM69.6 234.3L69.6 234.3Q70.2 234.3 70.8 234.0Q71.4 233.7 71.9 233.1L71.9 233.1L71.9 230.6Q70.4 230.8 69.6 231.1Q68.7 231.5 68.3 231.9Q67.9 232.4 67.9 232.9L67.9 232.9Q67.9 233.6 68.4 234.0Q68.8 234.3 69.6 234.3ZM83.7 236.8L83.7 236.8Q82.0 236.8 80.6 236.1Q79.3 235.3 78.5 233.8Q77.7 232.4 77.7 230.4L77.7 230.4Q77.7 228.3 78.6 226.9Q79.4 225.4 80.9 224.7Q82.3 223.9 84.0 223.9L84.0 223.9Q85.1 223.9 86.0 224.3Q86.9 224.7 87.6 225.3L87.6 225.3L86.0 227.3Q85.6 226.9 85.1 226.7Q84.7 226.5 84.2 226.5L84.2 226.5Q83.2 226.5 82.5 227.0Q81.8 227.5 81.4 228.3Q81.0 229.2 81.0 230.4L81.0 230.4Q81.0 231.5 81.4 232.4Q81.8 233.2 82.5 233.7Q83.2 234.2 84.1 234.2L84.1 234.2Q84.7 234.2 85.3 233.9Q85.9 233.6 86.5 233.2L86.5 233.2L87.7 235.3Q86.9 236.1 85.8 236.5Q84.7 236.8 83.7 236.8ZM93.3 236.5L90.1 236.5L90.1 219.0L93.3 219.0L93.3 229.5L93.3 229.5L97.5 224.2L101.1 224.2L96.9 229.3L101.5 236.5L98.0 236.5L95.0 231.4L93.3 233.4L93.3 236.5ZM106.0 236.8L106.0 236.8Q104.9 236.8 104.1 236.4Q103.3 235.9 102.8 235.0Q102.4 234.2 102.4 233.2L102.4 233.2Q102.4 231.2 104.1 230.1Q105.7 229.0 109.4 228.6L109.4 228.6Q109.4 228.0 109.2 227.5Q109.0 227.1 108.6 226.8Q108.1 226.5 107.4 226.5L107.4 226.5Q106.5 226.5 105.7 226.8Q104.8 227.1 104.0 227.7L104.0 227.7L102.8 225.5Q103.5 225.1 104.4 224.7Q105.2 224.4 106.1 224.1Q107.0 223.9 107.9 223.9L107.9 223.9Q109.5 223.9 110.6 224.5Q111.6 225.1 112.2 226.3Q112.7 227.5 112.7 229.3L112.7 229.3L112.7 236.5L110.0 236.5L109.8 235.2L109.7 235.2Q108.9 235.9 108.0 236.4Q107.1 236.8 106.0 236.8ZM107.1 234.3L107.1 234.3Q107.8 234.3 108.3 234.0Q108.9 233.7 109.4 233.1L109.4 233.1L109.4 230.6Q107.9 230.8 107.1 231.1Q106.2 231.5 105.8 231.9Q105.4 232.4 105.4 232.9L105.4 232.9Q105.4 233.6 105.9 234.0Q106.3 234.3 107.1 234.3ZM120.3 241.9L120.3 241.9Q118.9 241.9 117.7 241.5Q116.5 241.2 115.9 240.5Q115.2 239.8 115.2 238.7L115.2 238.7Q115.2 237.9 115.6 237.3Q116.1 236.6 116.9 236.1L116.9 236.1L116.9 236.0Q116.5 235.7 116.1 235.2Q115.8 234.7 115.8 233.9L115.8 233.9Q115.8 233.3 116.2 232.7Q116.6 232.1 117.2 231.7L117.2 231.7L117.2 231.6Q116.5 231.1 116.0 230.3Q115.5 229.4 115.5 228.3L115.5 228.3Q115.5 226.9 116.2 225.9Q116.9 224.9 118.1 224.4Q119.2 223.9 120.5 223.9L120.5 223.9Q121.0 223.9 121.5 224.0Q122.0 224.1 122.4 224.2L122.4 224.2L126.8 224.2L126.8 226.6L124.7 226.6Q125.0 226.9 125.1 227.4Q125.3 227.9 125.3 228.4L125.3 228.4Q125.3 229.8 124.6 230.8Q124.0 231.7 122.9 232.2Q121.8 232.6 120.5 232.6L120.5 232.6Q120.2 232.6 119.7 232.5Q119.3 232.5 118.9 232.3L118.9 232.3Q118.7 232.6 118.5 232.8Q118.4 233.0 118.4 233.4L118.4 233.4Q118.4 233.9 118.8 234.1Q119.2 234.4 120.3 234.4L120.3 234.4L122.4 234.4Q124.6 234.4 125.8 235.1Q127.0 235.9 127.0 237.5L127.0 237.5Q127.0 238.7 126.2 239.7Q125.4 240.7 123.9 241.3Q122.4 241.9 120.3 241.9ZM120.5 230.6L120.5 230.6Q121.0 230.6 121.5 230.4Q121.9 230.1 122.2 229.6Q122.4 229.1 122.4 228.3L122.4 228.3Q122.4 227.6 122.2 227.1Q121.9 226.6 121.5 226.4Q121.0 226.1 120.5 226.1L120.5 226.1Q120.0 226.1 119.5 226.4Q119.1 226.6 118.8 227.1Q118.6 227.6 118.6 228.3L118.6 228.3Q118.6 229.1 118.8 229.6Q119.1 230.1 119.5 230.4Q120.0 230.6 120.5 230.6ZM120.8 239.8L120.8 239.8Q121.7 239.8 122.4 239.6Q123.1 239.3 123.5 238.9Q123.9 238.5 123.9 238.0L123.9 238.0Q123.9 237.4 123.4 237.1Q122.9 236.9 121.9 236.9L121.9 236.9L120.4 236.9Q119.8 236.9 119.4 236.9Q119.0 236.9 118.7 236.8L118.7 236.8Q118.2 237.1 118.1 237.5Q117.9 237.8 117.9 238.2L117.9 238.2Q117.9 239.0 118.7 239.4Q119.5 239.8 120.8 239.8ZM133.9 236.8L133.9 236.8Q132.2 236.8 130.8 236.1Q129.4 235.3 128.6 233.8Q127.8 232.4 127.8 230.4L127.8 230.4Q127.8 228.9 128.3 227.7Q128.7 226.5 129.6 225.6Q130.4 224.8 131.4 224.3Q132.4 223.9 133.5 223.9L133.5 223.9Q135.2 223.9 136.4 224.7Q137.5 225.4 138.1 226.7Q138.7 228.1 138.7 229.8L138.7 229.8Q138.7 230.2 138.6 230.6Q138.6 231.0 138.5 231.3L138.5 231.3L130.9 231.3Q131.1 232.3 131.5 233.0Q132.0 233.6 132.7 234.0Q133.4 234.3 134.4 234.3L134.4 234.3Q135.1 234.3 135.8 234.1Q136.4 233.9 137.1 233.5L137.1 233.5L138.2 235.5Q137.3 236.1 136.2 236.5Q135.1 236.8 133.9 236.8ZM130.9 229.1L130.9 229.1L135.9 229.1Q135.9 227.9 135.3 227.1Q134.8 226.4 133.6 226.4L133.6 226.4Q132.9 226.4 132.4 226.7Q131.8 227.0 131.4 227.6Q131.0 228.2 130.9 229.1ZM143.2 236.8L143.2 236.8Q142.3 236.8 141.7 236.2Q141.2 235.6 141.2 234.7L141.2 234.7Q141.2 233.8 141.7 233.2Q142.3 232.6 143.2 232.6L143.2 232.6Q144.0 232.6 144.6 233.2Q145.2 233.8 145.2 234.7L145.2 234.7Q145.2 235.6 144.6 236.2Q144.0 236.8 143.2 236.8ZM148.3 241.6L148.3 241.6Q147.6 241.6 147.1 241.5Q146.6 241.4 146.3 241.2L146.3 241.2L146.8 238.8Q147.1 238.9 147.3 239.0Q147.6 239.0 147.9 239.0L147.9 239.0Q148.6 239.0 148.9 238.5Q149.2 238.0 149.2 236.9L149.2 236.9L149.2 224.2L152.5 224.2L152.5 236.8Q152.5 238.1 152.1 239.2Q151.7 240.3 150.8 240.9Q149.9 241.6 148.3 241.6ZM150.8 222.2L150.8 222.2Q150.0 222.2 149.5 221.7Q149.0 221.3 149.0 220.4L149.0 220.4Q149.0 219.6 149.5 219.2Q150.0 218.7 150.8 218.7L150.8 218.7Q151.7 218.7 152.2 219.2Q152.7 219.6 152.7 220.4L152.7 220.4Q152.7 221.3 152.2 221.7Q151.7 222.2 150.8 222.2ZM159.5 236.8L159.5 236.8Q158.2 236.8 157.0 236.3Q155.7 235.9 154.8 235.1L154.8 235.1L156.2 233.1Q157.1 233.7 157.9 234.0Q158.7 234.4 159.5 234.4L159.5 234.4Q160.5 234.4 160.9 234.0Q161.3 233.7 161.3 233.1L161.3 233.1Q161.3 232.6 160.9 232.3Q160.6 232.0 160.0 231.8Q159.4 231.5 158.7 231.3L158.7 231.3Q158.0 231.0 157.2 230.5Q156.5 230.1 156.0 229.4Q155.4 228.7 155.4 227.7L155.4 227.7Q155.4 226.6 156.0 225.7Q156.6 224.9 157.6 224.4Q158.6 223.9 160.0 223.9L160.0 223.9Q161.4 223.9 162.4 224.4Q163.5 224.8 164.2 225.4L164.2 225.4L162.8 227.4Q162.1 226.9 161.5 226.6Q160.8 226.3 160.1 226.3L160.1 226.3Q159.3 226.3 158.9 226.6Q158.5 227.0 158.5 227.5L158.5 227.5Q158.5 227.9 158.8 228.2Q159.1 228.5 159.7 228.8Q160.3 229.0 160.9 229.2L160.9 229.2Q161.5 229.4 162.1 229.7Q162.8 230.0 163.3 230.4Q163.8 230.9 164.1 231.5Q164.4 232.1 164.4 232.9L164.4 232.9Q164.4 234.0 163.8 234.9Q163.2 235.8 162.1 236.3Q161.1 236.8 159.5 236.8ZM172.0 236.8L172.0 236.8Q170.4 236.8 169.1 236.1Q167.7 235.3 166.9 233.8Q166.0 232.4 166.0 230.4L166.0 230.4Q166.0 228.3 166.9 226.9Q167.7 225.4 169.1 224.7Q170.4 223.9 172.0 223.9L172.0 223.9Q173.1 223.9 174.2 224.3Q175.2 224.8 176.1 225.6Q176.9 226.4 177.4 227.6Q177.9 228.8 177.9 230.4L177.9 230.4Q177.9 232.4 177.0 233.8Q176.2 235.3 174.9 236.1Q173.5 236.8 172.0 236.8ZM172.0 234.2L172.0 234.2Q172.8 234.2 173.4 233.7Q174.0 233.2 174.3 232.4Q174.6 231.5 174.6 230.4L174.6 230.4Q174.6 229.2 174.3 228.3Q174.0 227.5 173.4 227.0Q172.8 226.5 172.0 226.5L172.0 226.5Q171.1 226.5 170.5 227.0Q170.0 227.5 169.7 228.3Q169.4 229.2 169.4 230.4L169.4 230.4Q169.4 231.5 169.7 232.4Q170.0 233.2 170.5 233.7Q171.1 234.2 172.0 234.2ZM183.8 236.5L180.6 236.5L180.6 224.2L183.2 224.2L183.5 225.8L183.5 225.8Q184.4 225.0 185.3 224.5Q186.3 223.9 187.5 223.9L187.5 223.9Q189.5 223.9 190.4 225.2Q191.3 226.5 191.3 228.8L191.3 228.8L191.3 236.5L188.1 236.5L188.1 229.2Q188.1 227.8 187.7 227.2Q187.3 226.7 186.4 226.7L186.4 226.7Q185.6 226.7 185.1 227.0Q184.5 227.4 183.8 228.1L183.8 228.1L183.8 236.5Z " clip-path="url(#satori_cp-id-0-6)" mask="url(#satori_om-id-0-6)"/><clipPath id="satori_cp-id-0-7" clip-path="url(#satori_cp-id-0)"><rect x="20" y="243" width="560" height="32"/></clipPath><mask id="satori_om-id-0-7"><rect x="20" y="243" width="560" height="32" fill="#fff" mask="url(#satori_om-id-0)"/></mask><mask id="satori_om-id-0-7-0"><rect x="20" y="248" width="22" height="22" fill="#fff" mask="url(#satori_om-id-0-7)"/></mask><clipPath id="satori_cp-id-0-7-0-0" clip-path="url(#satori_cp-id-0-7)"><rect x="20" y="248" width="22" height="22"/></clipPath><mask id="satori_om-id-0-7-0-0"><rect x="20" y="248" width="22" height="22" fill="#fff" mask="url(#satori_om-id-0-7)"/></mask><image x="20" y="248" width="22" height="22" href="data:image/svg+xml;utf8,%3Csvg  xmlns=%22http://www.w3.org/2000/svg%22 width=%22null%22 height=%22null%22 viewBox=%220 0 32 32%22%3E%3Cpath fill=%22%23757575%22 d=%22M15 2H6a2.006 2.006 0 0 0-2 2v22a2.006 2.006 0 0 0 2 2h6v-4H6v-2h6v-2H6v-2h6v-2H6v-2h6v-2h2V4l8 8h2v-1Z%22 data-mit-no-recolor=%22true%22%3E%3C/path%3E%3Cpath fill=%22%230288d1%22 d=%22M12 12v18h18V12Zm8 6h-2v8h-2v-8h-2v-2h6Zm8 0h-4v2h2a2.006 2.006 0 0 1 2 2v2a2.006 2.006 0 0 1-2 2h-4v-2h4v-2h-2a2.006 2.006 0 0 1-2-2v-2a2.006 2.006 0 0 1 2-2h4Z%22%3E%3C/path%3E%3C/svg%3E" preserveAspectRatio="none" clip-path="url(#satori_cp-id-0-7-0-0)" mask="url(#satori_om-id-0-7-0-0)"/><mask id="satori_om-id-0-7-0-0-0"><rect x="20" y="248" width="0" height="22" fill="#fff" mask="url(#satori_om-id-0-7)"/></mask><mask id="satori_om-id-0-7-0-0-1"><rect x="20" y="248" width="0" height="22" fill="#fff" mask="url(#satori_om-id-0-7)"/></mask><path fill="#fff" d="M56.2 268.8L56.2 268.8Q54.8 268.8 53.9 268.2Q53.0 267.7 52.6 266.6Q52.2 265.6 52.2 264.2L52.2 264.2L52.2 258.8L50.5 258.8L50.5 256.4L52.4 256.2L52.8 252.9L55.4 252.9L55.4 256.2L58.5 256.2L58.5 258.8L55.4 258.8L55.4 264.2Q55.4 265.3 55.9 265.8Q56.3 266.3 57.1 266.3L57.1 266.3Q57.4 266.3 57.7 266.2Q58.1 266.1 58.3 266.0L58.3 266.0L58.9 268.4Q58.4 268.5 57.7 268.7Q57.1 268.8 56.2 268.8ZM64.1 268.8L64.1 268.8Q62.9 268.8 61.6 268.3Q60.4 267.9 59.5 267.1L59.5 267.1L60.9 265.1Q61.7 265.7 62.6 266.0Q63.4 266.4 64.2 266.4L64.2 266.4Q65.2 266.4 65.6 266.0Q66.0 265.7 66.0 265.1L66.0 265.1Q66.0 264.6 65.6 264.3Q65.3 264.0 64.7 263.8Q64.1 263.5 63.4 263.3L63.4 263.3Q62.7 263.0 61.9 262.5Q61.2 262.1 60.6 261.4Q60.1 260.7 60.1 259.7L60.1 259.7Q60.1 258.6 60.7 257.7Q61.3 256.9 62.3 256.4Q63.3 255.9 64.7 255.9L64.7 255.9Q66.1 255.9 67.1 256.4Q68.2 256.8 68.9 257.4L68.9 257.4L67.5 259.4Q66.8 258.9 66.2 258.6Q65.5 258.3 64.8 258.3L64.8 258.3Q64.0 258.3 63.6 258.6Q63.2 259.0 63.2 259.5L63.2 259.5Q63.2 259.9 63.5 260.2Q63.8 260.5 64.4 260.8Q65.0 261.0 65.6 261.2L65.6 261.2Q66.2 261.4 66.8 261.7Q67.4 262.0 68.0 262.4Q68.5 262.9 68.8 263.5Q69.1 264.1 69.1 264.9L69.1 264.9Q69.1 266.0 68.5 266.9Q67.9 267.8 66.8 268.3Q65.8 268.8 64.1 268.8ZM76.8 268.8L76.8 268.8Q75.1 268.8 73.7 268.1Q72.3 267.3 71.5 265.8Q70.7 264.4 70.7 262.4L70.7 262.4Q70.7 260.3 71.6 258.9Q72.5 257.4 73.9 256.7Q75.4 255.9 77.0 255.9L77.0 255.9Q78.2 255.9 79.1 256.3Q79.9 256.7 80.6 257.3L80.6 257.3L79.1 259.3Q78.6 258.9 78.2 258.7Q77.7 258.5 77.2 258.5L77.2 258.5Q76.3 258.5 75.6 259.0Q74.8 259.5 74.5 260.3Q74.1 261.2 74.1 262.4L74.1 262.4Q74.1 263.5 74.5 264.4Q74.8 265.2 75.5 265.7Q76.2 266.2 77.1 266.2L77.1 266.2Q77.8 266.2 78.4 265.9Q79.0 265.6 79.5 265.2L79.5 265.2L80.8 267.3Q79.9 268.1 78.8 268.5Q77.8 268.8 76.8 268.8ZM87.5 268.8L87.5 268.8Q85.9 268.8 84.6 268.1Q83.2 267.3 82.4 265.8Q81.6 264.4 81.6 262.4L81.6 262.4Q81.6 260.3 82.4 258.9Q83.2 257.4 84.6 256.7Q85.9 255.9 87.5 255.9L87.5 255.9Q88.7 255.9 89.7 256.3Q90.8 256.8 91.6 257.6Q92.4 258.4 92.9 259.6Q93.4 260.8 93.4 262.4L93.4 262.4Q93.4 264.4 92.6 265.8Q91.7 267.3 90.4 268.1Q89.0 268.8 87.5 268.8ZM87.5 266.2L87.5 266.2Q88.3 266.2 88.9 265.7Q89.5 265.2 89.8 264.4Q90.1 263.5 90.1 262.4L90.1 262.4Q90.1 261.2 89.8 260.3Q89.5 259.5 88.9 259.0Q88.3 258.5 87.5 258.5L87.5 258.5Q86.7 258.5 86.1 259.0Q85.5 259.5 85.2 260.3Q84.9 261.2 84.9 262.4L84.9 262.4Q84.9 263.5 85.2 264.4Q85.5 265.2 86.1 265.7Q86.7 266.2 87.5 266.2ZM99.3 268.5L96.1 268.5L96.1 256.2L98.8 256.2L99.0 257.8L99.1 257.8Q99.9 257.0 100.8 256.5Q101.8 255.9 103.1 255.9L103.1 255.9Q105.1 255.9 106.0 257.2Q106.9 258.5 106.9 260.8L106.9 260.8L106.9 268.5L103.6 268.5L103.6 261.2Q103.6 259.8 103.2 259.2Q102.8 258.7 101.9 258.7L101.9 258.7Q101.1 258.7 100.6 259.0Q100.0 259.4 99.3 260.0L99.3 260.0L99.3 268.5ZM114.0 268.5L110.8 268.5L110.8 255.2Q110.8 253.9 111.2 252.9Q111.6 251.9 112.6 251.3Q113.5 250.7 115.0 250.7L115.0 250.7Q115.8 250.7 116.4 250.8Q117.0 250.9 117.4 251.1L117.4 251.1L116.8 253.5Q116.2 253.2 115.5 253.2L115.5 253.2Q114.8 253.2 114.4 253.7Q114.0 254.1 114.0 255.1L114.0 255.1L114.0 268.5ZM116.3 258.8L109.1 258.8L109.1 256.4L110.9 256.2L116.3 256.2L116.3 258.8ZM121.6 268.5L118.4 268.5L118.4 256.2L121.6 256.2L121.6 268.5ZM120.0 254.2L120.0 254.2Q119.2 254.2 118.7 253.7Q118.2 253.3 118.2 252.4L118.2 252.4Q118.2 251.6 118.7 251.2Q119.2 250.7 120.0 250.7L120.0 250.7Q120.8 250.7 121.4 251.2Q121.9 251.6 121.9 252.4L121.9 252.4Q121.9 253.3 121.4 253.7Q120.8 254.2 120.0 254.2ZM129.4 273.9L129.4 273.9Q128.0 273.9 126.8 273.5Q125.6 273.2 125.0 272.5Q124.3 271.8 124.3 270.7L124.3 270.7Q124.3 269.9 124.7 269.3Q125.2 268.6 126.1 268.1L126.1 268.1L126.1 268.0Q125.6 267.7 125.3 267.2Q124.9 266.7 124.9 265.9L124.9 265.9Q124.9 265.3 125.3 264.7Q125.7 264.1 126.3 263.7L126.3 263.7L126.3 263.6Q125.7 263.1 125.2 262.3Q124.6 261.4 124.6 260.3L124.6 260.3Q124.6 258.9 125.3 257.9Q126.0 256.9 127.2 256.4Q128.3 255.9 129.6 255.9L129.6 255.9Q130.1 255.9 130.6 256.0Q131.1 256.1 131.5 256.2L131.5 256.2L135.9 256.2L135.9 258.6L133.8 258.6Q134.1 258.9 134.2 259.4Q134.4 259.9 134.4 260.4L134.4 260.4Q134.4 261.8 133.7 262.8Q133.1 263.7 132.0 264.2Q130.9 264.6 129.6 264.6L129.6 264.6Q129.3 264.6 128.8 264.5Q128.4 264.5 128.0 264.3L128.0 264.3Q127.8 264.6 127.6 264.8Q127.5 265.0 127.5 265.4L127.5 265.4Q127.5 265.9 127.9 266.1Q128.3 266.4 129.4 266.4L129.4 266.4L131.5 266.4Q133.8 266.4 134.9 267.1Q136.1 267.9 136.1 269.5L136.1 269.5Q136.1 270.7 135.3 271.7Q134.5 272.7 133.0 273.3Q131.5 273.9 129.4 273.9ZM129.6 262.6L129.6 262.6Q130.1 262.6 130.6 262.4Q131.0 262.1 131.3 261.6Q131.6 261.1 131.6 260.3L131.6 260.3Q131.6 259.6 131.3 259.1Q131.0 258.6 130.6 258.4Q130.1 258.1 129.6 258.1L129.6 258.1Q129.1 258.1 128.6 258.4Q128.2 258.6 127.9 259.1Q127.7 259.6 127.7 260.3L127.7 260.3Q127.7 261.1 127.9 261.6Q128.2 262.1 128.6 262.4Q129.1 262.6 129.6 262.6ZM129.9 271.8L129.9 271.8Q130.8 271.8 131.5 271.6Q132.2 271.3 132.6 270.9Q133.0 270.5 133.0 270.0L133.0 270.0Q133.0 269.4 132.5 269.1Q132.0 268.9 131.0 268.9L131.0 268.9L129.5 268.9Q128.9 268.9 128.5 268.9Q128.1 268.8 127.8 268.8L127.8 268.8Q127.4 269.1 127.2 269.5Q127.0 269.8 127.0 270.2L127.0 270.2Q127.0 271.0 127.8 271.4Q128.6 271.8 129.9 271.8ZM140.1 268.8L140.1 268.8Q139.2 268.8 138.6 268.2Q138.0 267.6 138.0 266.7L138.0 266.7Q138.0 265.8 138.6 265.2Q139.2 264.6 140.1 264.6L140.1 264.6Q140.9 264.6 141.5 265.2Q142.1 265.8 142.1 266.7L142.1 266.7Q142.1 267.6 141.5 268.2Q140.9 268.8 140.1 268.8ZM145.2 273.6L145.2 273.6Q144.5 273.6 144.0 273.5Q143.5 273.4 143.1 273.2L143.1 273.2L143.7 270.8Q144.0 270.9 144.2 271.0Q144.5 271.0 144.8 271.0L144.8 271.0Q145.5 271.0 145.8 270.5Q146.1 269.9 146.1 268.9L146.1 268.9L146.1 256.2L149.4 256.2L149.4 268.8Q149.4 270.1 149.0 271.2Q148.6 272.3 147.7 272.9Q146.8 273.6 145.2 273.6ZM147.7 254.2L147.7 254.2Q146.9 254.2 146.4 253.7Q145.8 253.3 145.8 252.4L145.8 252.4Q145.8 251.6 146.4 251.2Q146.9 250.7 147.7 250.7L147.7 250.7Q148.5 250.7 149.1 251.2Q149.6 251.6 149.6 252.4L149.6 252.4Q149.6 253.3 149.1 253.7Q148.5 254.2 147.7 254.2ZM156.3 268.8L156.3 268.8Q155.1 268.8 153.8 268.3Q152.6 267.9 151.6 267.1L151.6 267.1L153.1 265.1Q153.9 265.7 154.7 266.0Q155.5 266.4 156.4 266.4L156.4 266.4Q157.3 266.4 157.8 266.0Q158.2 265.7 158.2 265.1L158.2 265.1Q158.2 264.6 157.8 264.3Q157.4 264.0 156.9 263.8Q156.3 263.5 155.6 263.3L155.6 263.3Q154.9 263.0 154.1 262.5Q153.3 262.1 152.8 261.4Q152.3 260.7 152.3 259.7L152.3 259.7Q152.3 258.6 152.9 257.7Q153.5 256.9 154.5 256.4Q155.5 255.9 156.9 255.9L156.9 255.9Q158.3 255.9 159.3 256.4Q160.4 256.8 161.1 257.4L161.1 257.4L159.6 259.4Q159.0 258.9 158.3 258.6Q157.7 258.3 157.0 258.3L157.0 258.3Q156.2 258.3 155.8 258.6Q155.4 259.0 155.4 259.5L155.4 259.5Q155.4 259.9 155.7 260.2Q156.0 260.5 156.6 260.8Q157.2 261.0 157.8 261.2L157.8 261.2Q158.4 261.4 159.0 261.7Q159.6 262.0 160.1 262.4Q160.6 262.9 160.9 263.5Q161.2 264.1 161.2 264.9L161.2 264.9Q161.2 266.0 160.7 266.9Q160.1 267.8 159.0 268.3Q157.9 268.8 156.3 268.8ZM168.8 268.8L168.8 268.8Q167.3 268.8 166.0 268.1Q164.6 267.3 163.8 265.8Q162.9 264.4 162.9 262.4L162.9 262.4Q162.9 260.3 163.8 258.9Q164.6 257.4 166.0 256.7Q167.3 255.9 168.8 255.9L168.8 255.9Q170.0 255.9 171.1 256.3Q172.1 256.8 173.0 257.6Q173.8 258.4 174.3 259.6Q174.8 260.8 174.8 262.4L174.8 262.4Q174.8 264.4 173.9 265.8Q173.1 267.3 171.7 268.1Q170.4 268.8 168.8 268.8ZM168.8 266.2L168.8 266.2Q169.7 266.2 170.3 265.7Q170.8 265.2 171.1 264.4Q171.4 263.5 171.4 262.4L171.4 262.4Q171.4 261.2 171.1 260.3Q170.8 259.5 170.3 259.0Q169.7 258.5 168.8 258.5L168.8 258.5Q168.0 258.5 167.4 259.0Q166.8 259.5 166.5 260.3Q166.2 261.2 166.2 262.4L166.2 262.4Q166.2 263.5 166.5 264.4Q166.8 265.2 167.4 265.7Q168.0 266.2 168.8 266.2ZM180.7 268.5L177.5 268.5L177.5 256.2L180.1 256.2L180.3 257.8L180.4 257.8Q181.2 257.0 182.2 256.5Q183.2 255.9 184.4 255.9L184.4 255.9Q186.4 255.9 187.3 257.2Q188.2 258.5 188.2 260.8L188.2 260.8L188.2 268.5L185.0 268.5L185.0 261.2Q185.0 259.8 184.6 259.2Q184.2 258.7 183.3 258.7L183.3 258.7Q182.5 258.7 181.9 259.0Q181.4 259.4 180.7 260.0L180.7 260.0L180.7 268.5Z " clip-path="url(#satori_cp-id-0-7)" mask="url(#satori_om-id-0-7)"/></svg>